<svg id="图层_1" data-name="图层 1" xmlns="http://www.w3.org/2000/svg" viewBox="0 0 1200 1200"><defs><style>.cls-1{fill:#36c2bc;}.cls-2{fill:#fff;}</style></defs><circle class="cls-1" cx="600" cy="600" r="600"/><path class="cls-2" d="M778.14,588H618.57v42.7h21.35v218l-24.49,3.61,8,44L716,878.51V947.4h42.28V870.07L780,865.83l-2.32-41L758.28,828V630.64h19.86V588ZM716,630.67v42.25H681.57V630.64H716Zm0,123.59H681.57V712H716Zm-34.43,38.9H716v42.25l-34.43,6.12Zm311,10.13V764.62H768v38.67h48.4q-8.75,31.83-20.29,62.77H925q-4.23,29-11.19,35.09a24.13,24.13,0,0,1-15,3.58,447.34,447.34,0,0,1-48-2.55A82.54,82.54,0,0,1,861,923.1a107.74,107.74,0,0,1,4.43,22.19,457.81,457.81,0,0,0,53-.4,50.91,50.91,0,0,0,18.61-4.24,33.89,33.89,0,0,0,14.13-9.27q8.05-8.49,12.68-28.34a409.84,409.84,0,0,0,9.93-74.39H856.11l7.38-25.36ZM902,572.74H858.23v32.11h-74v141.6H976.15V604.85H902V572.74Zm30.66,65.09v22.61H902V637.83Zm-74.39,0v22.61H825.45V637.83ZM902,713.47V691.29h30.66v22.18Zm-43.73-22.18v22.18H825.45V691.29ZM413.81,576.74l-53.44-5.29-1.92,29.63h-145v42.24H353.19L350,663.85H255.76V893.74H203.35v43.1H571.26v-43.1H519.68V664.05H397.12l4.24-20.53H560.9V601.28H409.6l4.21-24.5Zm57.27,183v20.09H302V759.76Zm0-56.22V724.7H302V703.54ZM302,836.27V814.91h169v21.36Zm0,57.47V871.33h169v22.41ZM797.38,282.19a110,110,0,0,0-15.23-12.68,82.57,82.57,0,0,0-17.55-9.1,88.36,88.36,0,0,0-18.8-5.93,106,106,0,0,0-19.86-1.88A99.16,99.16,0,0,0,694,257.66a77.8,77.8,0,0,0-24.93,14.17A66.39,66.39,0,0,0,652.84,293a62.78,62.78,0,0,0-5.73,26.42,64.49,64.49,0,0,0,3.81,22.42,60.49,60.49,0,0,0,10.36,17.54,77,77,0,0,0,14.8,12.88,126.14,126.14,0,0,0,17.31,9.07l30.46,13.11a172,172,0,0,1,24.7,12.25,32.77,32.77,0,0,1,7,8.05,21.82,21.82,0,0,1,2.55,10.76,26,26,0,0,1-2.32,11,21.05,21.05,0,0,1-7.18,8.47,30.73,30.73,0,0,1-11.42,5.47,59.11,59.11,0,0,1-15.43,1.92,74.18,74.18,0,0,1-30.63-7.19,103.56,103.56,0,0,1-27.47-18.17l-26.19,31.48a119.36,119.36,0,0,0,17.94,14.37,122.93,122.93,0,0,0,42.48,17.12A125.88,125.88,0,0,0,720.67,492a107.92,107.92,0,0,0,35.26-5.49,77.79,77.79,0,0,0,26.42-15.23,61.21,61.21,0,0,0,16.49-22.38,63.77,63.77,0,0,0,5.72-26.62,69.58,69.58,0,0,0-3.41-22.18,53.64,53.64,0,0,0-9.07-17.35,67.5,67.5,0,0,0-14.8-13.11,94.13,94.13,0,0,0-18.8-9.93l-30-12.91A140.3,140.3,0,0,1,703.56,335a21.14,21.14,0,0,1-7.62-7.81,18.94,18.94,0,0,1-3-10.37,20.78,20.78,0,0,1,8.87-17.94,39.7,39.7,0,0,1,24.11-6.55,65.7,65.7,0,0,1,25.79,5.06,81,81,0,0,1,22.61,13.94l23-28.94ZM363.32,313.84A52.87,52.87,0,0,0,357,287a44,44,0,0,0-17.31-17.55A78.57,78.57,0,0,0,313.46,260a175.63,175.63,0,0,0-32.77-2.75H205.24V487.55h81.37a138,138,0,0,0,35.09-4.23,84.48,84.48,0,0,0,27.88-12.45,54.86,54.86,0,0,0,18.8-21.16,57.7,57.7,0,0,0,5.07-13.93,73,73,0,0,0,1.69-16.06,63.72,63.72,0,0,0-3.38-21.12,47.23,47.23,0,0,0-8.87-15.89,52.33,52.33,0,0,0-13.51-11A64,64,0,0,0,332.27,365V363.5a42.79,42.79,0,0,0,13.07-7.61,54.79,54.79,0,0,0,9.74-12.05,60.05,60.05,0,0,0,8.24-30.19Zm-67.41-20.06a34.74,34.74,0,0,1,12.68,5.07,21.34,21.34,0,0,1,7.82,8.44,32.5,32.5,0,0,1,2.31,12.91,33.38,33.38,0,0,1-2.31,12.68,23.92,23.92,0,0,1-7.42,9.5,43.26,43.26,0,0,1-13.08,6.13,72.36,72.36,0,0,1-18.6,2.12H250.69V291.89h27.48a84.4,84.4,0,0,1,17.74,1.69v.2Zm-45.22,91.08h31.68a100.73,100.73,0,0,1,20.93,1.92,42,42,0,0,1,15,5.49,22,22,0,0,1,9.11,9.94,28.62,28.62,0,0,1,3.38,14.36,35.22,35.22,0,0,1-3.38,15.66,29.59,29.59,0,0,1-9.11,11,47.36,47.36,0,0,1-15,6.56,92.61,92.61,0,0,1-20.93,2.12H250.69v-67ZM464.33,260.68a75.18,75.18,0,0,0-17.12,9.7,91.34,91.34,0,0,0-15,13.54,97.47,97.47,0,0,0-12,16.88,108.53,108.53,0,0,0-8.87,20.29,150.15,150.15,0,0,0-5.49,23.48,185.86,185.86,0,0,0,0,53.43,151.14,151.14,0,0,0,5.49,23.67,123.65,123.65,0,0,0,8.87,20.73,116.19,116.19,0,0,0,12,17.31,85.39,85.39,0,0,0,15,13.74,89.54,89.54,0,0,0,17.12,10.16,84.81,84.81,0,0,0,19.86,6.13,114.29,114.29,0,0,0,43.54,0,88.85,88.85,0,0,0,19.86-6.13,90.73,90.73,0,0,0,16.88-10.16,97.5,97.5,0,0,0,15-13.74,125,125,0,0,0,11.81-17.31,113.56,113.56,0,0,0,9.11-20.73A151.14,151.14,0,0,0,605.92,398a186.37,186.37,0,0,0,0-53.47,147.26,147.26,0,0,0-5.49-23.24,108.19,108.19,0,0,0-9.11-20.49,121.06,121.06,0,0,0-11.81-16.88,123.36,123.36,0,0,0-15-13.54,99.54,99.54,0,0,0-36.78-15.86,126.32,126.32,0,0,0-43.54,0A83.32,83.32,0,0,0,464.33,260.68Zm-13.94,110.7a129,129,0,0,1,4-33.37,75.48,75.48,0,0,1,11.19-24.73,47.42,47.42,0,0,1,40.15-21.12,49.3,49.3,0,0,1,23.24,5.5,48.39,48.39,0,0,1,17.35,15.62A75.59,75.59,0,0,1,557.52,338a136.51,136.51,0,0,1,3.81,33.37,138.08,138.08,0,0,1-3.81,33.41,82.9,82.9,0,0,1-11.19,25.56,52,52,0,0,1-17.35,16,48,48,0,0,1-23.24,5.73,47.21,47.21,0,0,1-22.84-5.73,52,52,0,0,1-17.31-16,82.67,82.67,0,0,1-11.19-25.56A130.69,130.69,0,0,1,450.39,371.38Zm506.53-110.9a83.28,83.28,0,0,0-18.8-6,102,102,0,0,0-51.58,3.18,79.61,79.61,0,0,0-25.36,14.17A67.78,67.78,0,0,0,845.12,293a62.68,62.68,0,0,0-5.7,26.42,64.9,64.9,0,0,0,3.81,22.41,60.67,60.67,0,0,0,10.33,17.55,77.28,77.28,0,0,0,14.8,12.87,118.29,118.29,0,0,0,16.88,9.08l30.66,13.11a167.77,167.77,0,0,1,24.73,12.25,32.54,32.54,0,0,1,7,8,21.39,21.39,0,0,1,2.55,10.76,26,26,0,0,1-2.31,11,23.65,23.65,0,0,1-7.19,8.48,33.15,33.15,0,0,1-11.39,5.46,59.67,59.67,0,0,1-15.66,1.92,73.68,73.68,0,0,1-30.42-7.18A107,107,0,0,1,855.48,427l-26.22,31.48a129.45,129.45,0,0,0,18.21,14.37,115,115,0,0,0,20.46,10.6,138.91,138.91,0,0,0,22,6.52,125.92,125.92,0,0,0,22.85,2.12,108.28,108.28,0,0,0,35.29-5.5,77.9,77.9,0,0,0,26.38-15.23A61.21,61.21,0,0,0,990.92,449a63.71,63.71,0,0,0,5.73-26.62,69.64,69.64,0,0,0-3.38-22.18,59.94,59.94,0,0,0-9.1-17.34,67,67,0,0,0-14.8-13.11,93.47,93.47,0,0,0-18.81-9.94l-30-12.91A140.06,140.06,0,0,1,895.64,335a21,21,0,0,1-7.61-7.81,18.83,18.83,0,0,1-3-10.36,20.74,20.74,0,0,1,8.9-17.95A39.71,39.71,0,0,1,918,292.36a65.67,65.67,0,0,1,25.79,5.06,80.82,80.82,0,0,1,22.61,13.94l23-29a110,110,0,0,0-15.23-12.68,88.37,88.37,0,0,0-17.31-9.27Z"/></svg>