<svg id="图层_1" data-name="图层 1" xmlns="http://www.w3.org/2000/svg" viewBox="0 0 1200 1200"><defs><style>.cls-1{fill:#ff5c00;}.cls-2{fill:#fff;}.cls-3{fill:#ffe500;}</style></defs><circle class="cls-1" cx="600" cy="600" r="600"/><path class="cls-2" d="M327.08,498.51l-42.85,60.66,79.42,45.29s52.83,24.85,27.75,71.3C367.56,719.84,252,816.19,252,816.19l103.69,59.27c71.51-142.46,67-123.44,85-174.67,18.44-52.31,22.36-92.18-8.93-120.92C391.46,542.7,387.11,539.28,327.08,498.51ZM582.25,394.38c14.33-27,21.26-44.48,21.26-44.48l-83.63-25.37S486.16,443.5,426,499c0,0,58.17,36.3,57.5,35.23a615.07,615.07,0,0,0,44.74-54.17q19.26-9.12,38.74-17.74c-15.39,30.1-40.45,75.22-65.44,103.63l35.23,33.35s24-24.94,50.22-55h29.92v55.5H500.25v44.4H616.93V750.6c-1.47-.05-2.95-.05-4.4-.17-12.88-.7-32.94-3-40.77-16.33-9.57-16.29-2.55-46.25-2.09-64.54H489.35l-3,1.59S457,813.9,571.47,810.71c107.14,3.14,168.58-32.21,198-56.74l11.71,47.26,66.11-29.66L802.69,653.09,749,671.15l10.09,40.6a163.19,163.19,0,0,1-46.77,25.54V644.16H826.06v-44.4H712.28v-55.5H826.52V499.84h-203c14.58-19.2,26.09-36.83,29.14-48.08l-35.32-10.35C769.05,382.69,853.64,392.75,852.82,489V742.8s9.08,87.28-83.33,80.9l-49.88-11.59L707.9,863.37S923.52,930,941.12,750.69s-4.38-293.45-4.38-293.45-19.49-165.42-354.49-62.86Z"/><path class="cls-3" d="M382.52,331.77A65.25,65.25,0,1,1,317.28,397,65.27,65.27,0,0,1,382.52,331.77Z"/></svg>