<svg id="图层_1" data-name="图层 1" xmlns="http://www.w3.org/2000/svg" viewBox="0 0 1200 1200"><defs><style>.cls-1{fill:#f4c91f;}.cls-2{fill:#1e1e1e;}</style></defs><circle class="cls-1" cx="600" cy="600" r="600"/><path class="cls-2" d="M1000.2,547,999,543.51l-14.24,2.35V547l-9.4,1.24v1.24L967,550.56v1.24h-3.59v1.11L954,554.15v1.11h-3.59v1.24h-4.7v1.24h-4.83v1.11h-4.7v1.24h-4.7v1.11h-5.94v1.24h-7.06v.74h-7.17v1.24c-5.08,1.49-12.38-.62-15.35,2.35h-1.24l1.24-3.59h1.24v-2.35l2.47-1.11v-2.35l3.47-2.48v-2.35l2.35-1.11,1.24-3.59h1.11v-2l3.59-2.35,1.24-4.83,2.35-1.12v-2.35l2.35-1.23v-2.36l2.35-1.11,1.24-4.83,2.35-1.11,1.11-4.83,2.48-1.11v-2.35h1.11v-2.6h1.24V511.2h1.12v-2.35l2.35-1.11v-2.35h1.61v-2.48h1.23V501.3h1.12V499H938V496.6h1.12v-2.35h1.24V491.4h1.11v-2.47h1.24v-2.48h1.23V484.1H945l1.24-4.7h.49v-2.35H948v-3.59h1.11l1.24-4.7h1.24v-3.59h1.11l1.24-4.71H955v-3.58h1.24v-2.36h1.11l1.24-7h1.12v-2.35H961c5.2-17.08,10.27-34,15.35-51v-5.94h1.24v-4.7h1.23v-5.94h1.12v-5.94h1.24v-6.44h1.11v-7.05h1.61v-8.29H985v-8.3h1.24V329.16a207.82,207.82,0,0,0,2.35-47.4V262.83h-1.11v-2.36h-1.24L985,256.89c-12.37.61-17.2,11.38-23.64,17.82a217.48,217.48,0,0,1-26,22.52l-4.83,5.82h-2.35l-3.59,4.82L921.12,309l-1.23,2.35h-2.36L914,316.16h-2.36l-1.11,2.36H908l-2.35,3.58H903.3l-1.11,2.36-3.59,1.11v1.24H896l-1.24,2.35-3.46,1.24v1.11h-2.48l-1.11,2.35h-2.85l-1.24,2.35-4.7,1.24-1.24,2.35L873,341l-1.24,2.35-7,2.35-1.24,2.35H861.1v1.24h-2.35v1.12H856.4v1.23h-2.35v1.12H851.7V354h-2.36v1.12h-1.6v1.24h-2.48v1.23h-2.35v1.12h-2.6V360H838v1.12h-2.6v1.24H833v1.11h-3.59v1.73l-4.7,1.24v1.11h-3.59v1.24l-4.7,1.11v1.24l-7.18,1.12v1.23H806.9v1.24l-7.06,1.12v1.23h-1.61v.5l-7.17,1.24v1.11h-4v1.24h-3.58v1.23l-12.38,2.36v1.11h-4.7v1.24h-4.71v1.11h-4.33v1.73h-4.7V391H748v1.23h-5.94a165.73,165.73,0,0,1-24.75,5.94c1.6-4.33,3.21-8.66,4.7-12.37h1.24l.74-8.29h1.24V375.2h1.23l2.36-12.38h1.11v-3.46h1.24v-4.83h1.11v-4.7h1.24v-5.94h1.24v-5.82h1.6v-8.29a170.3,170.3,0,0,0-5.94-82.92v-4.7H729.3v-3.59h-1.24V235H727v-3.59h-1.24v-4.7H724l-1.11-7.06h-1.24c-1.12-1.85-2.23-2.1-3.47-3.58h-3.59l-1.23,2.35H711.6l-1.11,2.35h-1.24v3.59h-1.11v2.35H706.9v3.59h-1.24l-1.11,4.7h-1.24l-1.11,4.7-3,1.74-2.48,7.05h-1.11l-1.24,3.59-2.35,1.24v2.35h-1.11l-1.24,3.46-2.35,1.24v2.35L685,263.94l-1.24,3.46-7.06,5.94v2.36l-5.94,4.82c-3.21,3.47-6.31,7.06-9.53,10.65h-2.35l-4.7,5.94h-2.35l-2.35,3.46h-2.35l-2.48,3.59H642.3l-1.11,2.35h-2.36l-1.23,2.35h-2.35L634,311.21h-2.35l-1.12,2.48-4.82,1.11-1.12,2.35h-2.1v1.24H620v1.12h-2.35v1.23h-2.35V322H612.6v1.11h-2.35v1.24H607.9v1.12h-2.36v1.23L598.37,329v1.23h-3.1v1.12l-4.82,1.23v1.12L583.39,335v1.11H581v1.24L539.58,349.7h-5.94v1.12H527.7v1.23h-5.94v.75h-5.82V354l-14.72,1.12-58,14.23a429.35,429.35,0,0,0-80.57,35.52h-2.35v1.24h-2.35v1.11h-2.35v1.24H353.2L352,410.84h-2.35v1.24h-1.86l-1.24,2.35-4.7,1.11L340.58,418h-2.35l-1.11,2.35h-2.36a13.83,13.83,0,0,0-1.23,2.35h-2.35v1.11l-3.59,1.24-1.12,2.35h-2.35L321.65,431H319.3l-2.36,3.59h-2.35l-2.35,3.46h-2.35L305.06,444h-1.85l-5.94,7.05h-2.35l-14.11,15.47-8.29,7.05v3l-7.18,5.94-1.12,3.59-3.59,2.35v2.35l-3.58,2.36v2.35L253.46,498v2.35l-2.35,1.12L250,505h-1.24v2.35l-2.35,1.24-1.23,3.46h-1.12l-1.24,4.83L240.46,518l-2.35,7.18-2.35,1.11v2.35h-1.24v2.48h-1.11v2.35h-1.24v2.35h-1.11v2.35H229v2.36h-1.11l-2.48,7.05h-1.11v3.22H223l-1.11,4.7h-1.24v3.59h-1.11v2.35h-1.24l-1.24,7.18h-.49V571h-1.24L213,583.35h-1.36v3.59h-1.24v3.59h-1.24v4.71H208v4.7H206.8v5.94h-1.11v4.82H204.2v7.06h-1.11v7h-1.24v9.53h-1.24v12.38a159.43,159.43,0,0,0-1.11,37.87h1.11v14.23h1.24v9.53h1.24v8.29h1.11v7.43c4.58,15.47,7.43,32,13,46.16l1.23,7.17h1.24v2.36h1.12l1.23,7h1.12l1.23,4.7h1.12v3.59h1.24l1.23,4.7h1v2.48h1.24v3.47h1.11l2.36,7.17h1.23l1.12,4.71,2.47,1.23,2.35,7.06,2.36,1.11,1.11,4.83,2.47,1.11,1.12,4.83,2.35,1.11v2.35l2.35,1.24v2.35l2.48,1.24v1.73l2.35,1.12v2.35l3.46,2.47v2.35l3.59,2.36v2.35l3.59,2.35v2.35l5.94,4.7v2.35l8.29,7.06V882l7.06,5.94L300,900.3h3.22c2.35,2.72,4.82,5.44,7.17,8.29h2.36l4.7,5.94h2.35l3.59,4.7h2.35l2.23,2.85h2.35l1.24,2.47h2.35l2.35,3.47h2.35l1.24,2.35,3.59,1.24v1.23l4.7,1.12,1.11,2.35h2.48l1.11,2.35,4.71,1.24,1.23,2.35,18.94,8.29v1.24h2.35v1.11h2.35v1.24l7.18,2.35v1.24h3.46v1.48l4.83,1.24v1.11l7.05,1.24v1.12h2.36v1.23l7.17,1.12v1.23h3.47v1.24h3.59v1.12h3.59v1.73h3.46l9.53,1.24v1.11h4.7v1.24h4.83v1.24h5.82v1.11h5.94v1.24h5.94v1.11h8.29v1.24h9.53v1.11h14.11V984h39.1v-1.23l23.77-1.12v-1.23h8.29v-1.12h7.05V978h5.94V976.9l10.64-1.24v-1.23h4.71v-1.12l8.29-1.24v-.49h3.59v-1.24h4v-1.11h3.59V968h3.46v-1.24h3.59v-1.11h2.35V964.4l7.18-1.11v-1.24l4.7-1.11V959.2h3.59V958l4.71-1.24v-1.24h4v-1.11l7-2.35v-1.24h2.35v-1.12h3v-1.23l7.18-2.36,1.11-2.35,7.18-2.35,1.11-2.47,4.83-1.12v-1.23l3.47-1.12,1.23-2.35,4.71-1.24,2.35-3.59,3.59-1.11v-1.24h2.35l1.24-2.35h2.35l1.11-2.35L709.5,920l3.59-4.7h2.35l3.59-4.7h2.35l5.94-7.18h2.35l12.38-14.11,10.64-9.53V877.4l7.18-5.94v-2.35l5.82-4.7v-2.36l3.58-2.47v-2.35l3.59-2.35v-2.36l2.35-1.23v-2.35l3.59-2.36v-2.35l2.35-1.23v-2.36l2.36-1.11v-2.35h1.11V834.7l2.48-1.11,1.11-4.7,2.35-1.24c0-1.61.87-3.09,1.24-4.7l2.35-1.24v-2.35h1.24V817h1.11v-2.36h1.73V812.3h1.12V810h1.23v-2.47h1.12v-2.35h1.24l2.35-7.06h1.23v-3.59h1.12c0-1.61.86-3.09,1.24-4.7H810l13-37.87v-4.83h1.12v-4.7h1.24c1.23-3.83,0-6.8,2.35-9.4,4.08-6.93,10.76-5.94,17.69-9.53v-1.12l7.18-2.47v-1.12h3.59v-1.23l4.7-1.12v-1.23l4.71-1.12,1.23-2.47h2.36v-1.12h2.35v-1.24h2.35V708.1h2.35l1.24-2.35,4.7-1.24,1.24-2.35,4.7-1.24,1.11-2.35h2.48l1.11-2.35h2.35l2.36-3.59H900l1.11-2.35h2.36l1.23-2.35,3.47-1.24,3.59-4.7h2.35l4.83-5.94h2.35c3.46-4,7-7.8,10.64-11.76l14.85-14.48v-2.35l5.94-4.83v-2.35l2.35-1.11v-1.24l2.35-1.11v-2.48L961,632v-2.35l2.35-1.11,1.24-3.59h1.12v-2.35l2.35-1.24V619l2.47-1.12v-2.47l2.35-1.12v-1.61H974v-2.35l2.35-1.23,1.24-4.71h1.23v-2.84l2.36-1.24V598h1.11v-2.35h1.61v-2.35H985v-2.48h1.24v-2.85h1.24v-2.35h1.11l2.35-7.05h1.24l1.11-5.94h1.24v-2.35h1.24v-3.59h.49V564.3h1.24v-3.59h1.11v-3.47h1.24a12.36,12.36,0,0,0,.37-10.27ZM319.54,746l-4.7,1.11v1.74h-2.35v1.23h-4.7a47.68,47.68,0,0,1-22.53,0v-1.23h-2.35v-1.24l-7.18-2.35a70.36,70.36,0,0,1-12.37-12.38l-4.83-3.59v-2.35l-2.35-1.24-1.11-3.46H253.7v-2.48l-2.35-1.11v-2.35L249,715l-2.35-7h-1.24l-1.23-4.83h-1.12l-1.24-5.82h-.49v-3.58h-1.24v-2.36h-1.24v-3.58h-1.23v-3.59h-1.24v-4.71h-1.12v-1.23h1.12v-2.36a13.26,13.26,0,0,1,8.29,3.59l1.24,2.35,3.59,1.24,2.35,3.47h1.85l2.36,3.59h2.35l1.23,2.35H262l2.35,3.59h2.35l1.24,2.35,4.7,1.24,1.24,2.35,4.7,1.11,1.24,2.48,10.64,3.46v1.24h2.35v1.36h3.47v1.24h2.47v1.24h4.7v1.11H307v1.24h3.47v1.11l9.53,1.24a52.32,52.32,0,0,0,13,3.59c1,1.23,0,0,1.24,1.11a37.92,37.92,0,0,1-15,22.4Zm326.84-82.92h-1.23L644,669h-1.24v2.36h-1.11v2.35h-1.24l-1.11,4.7h-2v2.47h-1.24v2.36H635v2.35h-1.24v2.35h-1.11v2.35l-2.35,1.24-1.24,4.7h-1.24l-1.11,3.59-2.36,1.11v2.35h-1.23L622,706.86l-2.47,1.24v2.35l-2.35,1.12-1.12,3.59-4.7,3.58A125.29,125.29,0,0,1,551,762.55l-10.77,1.12A116.82,116.82,0,0,1,478,761.19v-1.11l-4.7-1.24v-1.11l-5.94-1.24-1.12-2.35-4.82-1.24-1.12-2.35H457.9l-1.24-1.73h-2.35l-2.6-4.09a46.17,46.17,0,0,1-17.82-18.93l3.59-1.12v-.61h5.94V723h8.29v-1.24H460v-1.23l13-1.12v-1.23h5.94V717h4.7v-1.24h5.2v-1.11h5.94c14-4.58,29.46-9,42.7-14.23l10.64-2.35v-1.24h2.6V695.6h3.59v-1.11l5.94-1.24v-1.11h2.35V690.9h3.47v-1.11h2.47v-1.24H572v-1.61l4.7-1.11v-1.24h3.59v-1.36L585,682v-1.12h2.85v-1.23l4.7-1.24v-1.11H595v-1.24h3.47v-1.49l7.18-2.35V671H608v-1.11h3.59v-1.24l7-2.35V665H621v-1.11h4v-1.24h2.36v-.49l7-2.48V658.6h3v-1.24h2.35V656h4.7v-1.24l2.48,1.24Z"/></svg>