<svg id="图层_1" data-name="图层 1" xmlns="http://www.w3.org/2000/svg" viewBox="0 0 1200 1200"><defs><style>.cls-1{fill:#fff;}.cls-2{fill:#efc721;}.cls-3{fill:#462e2d;}</style></defs><circle class="cls-1" cx="600" cy="600" r="600"/><path class="cls-2" d="M285.49,901.29C261.56,897.52,238.06,878.9,227,855c-7.54-16.18-7.54-16.18-8.43-55.41l-.88-39.46h33c30.81,0,33.7-.44,40.79-5.1,21.28-14.18,16.4-36.35-9.75-45-8.87-2.88-16.41-3.55-37.46-2.44l-26.16,1.11V651.48h30.37c36.35,0,46.55-3.33,54.08-18l4.21-8.65-4.43-9.09c-7.54-14.41-16.85-17.51-53.86-17.51H217.89l.66-98,.67-98.2L226.53,387c9.09-18.62,20.4-30.37,37.91-39,14.18-7.32,35.68-11.75,47.43-9.76,6.87,1.11,8.2,0,20.17-14.18,16.18-18.62,36.13-37.91,41.67-39.68,2.22-.66,4-2,4-2.88,0-1.11,5.77-4.43,12.86-7.54,10.64-4.87,14.41-5.54,20.17-3.76,15.3,4.21,55.2,38.12,68,57.63,3.33,4.87,8.2,9.53,11.08,10.19s25.72.89,50.76.45l45.67-.67-.67,21.06L585,380l-37.69-.67c-39.89-.88-48.1.45-54.75,9.09-3.1,4.21-3.32,5.54-.44,10.64,4.66,9.09,13.3,10.86,55.86,10.86h38.79l-1.77,16c-.67,8.87-2,16.85-2.44,17.73-.67,1.11-18,1.78-38.57,1.78-35.69,0-37.68.22-42.12,4.87-5.54,6-5.54,8.87-.44,14.85,6.21,8,26.16,9.31,111.72,8.65l78.46-.67,6-6.42c6.87-7.32,6.65-6.88,3.77-12.42-4.66-8.42-11.09-10-49.88-11.08L613.77,442V408.76l37.68.89c41.9.89,52.09-1.33,57-11.75,2-4.88,1.77-6.43-1.55-10.2-7.09-8-17.51-9.53-56.3-8.64l-36.8.89-.66-21.06-.67-21.06,48.77.67,48.54.88,15.07-16.18c23.72-25.27,38.79-38.79,50.76-45.88,17.29-10.2,22.61-10.42,39-.89,13.52,8,49.43,41,59,54.53,4.21,6,5.54,6.43,21.05,7.09,46.55,1.33,79.14,29.93,86,75.15q2.32,15.62,1.55,218.33c-.89,218.11-.44,206.81-11.75,229-4.65,8.65-26.15,30.37-30.36,30.37-1.78,0-3.77,1.55-4.66,3.33-.66,1.77-3.32,3.32-5.76,3.32a23.76,23.76,0,0,0-8.87,2.22c-5.1,2.66-618.65,4.21-635.28,1.55Zm407-86c5.54-1.33,11.75-2.66,14-3.11,8.86-2,30.36-15.29,39.89-25,21.06-21.73,30.37-53.65,21.06-72.49-4.43-8.42-37.68-43.22-41.67-43.22-1.11,0-3.32-1.33-5.1-3.1-1.55-1.78-8.2-5.77-14.41-9.09-6.42-3.33-12.19-6.87-12.85-8-2-3.33-5.32-2.22-4,1.33,2.66,6.87-6.87,3.32-10.2-4-1.77-3.77-6-8.42-9.31-10-3.54-1.55-6.2-3.76-6.2-5.09,0-1.11-2-2-4.44-2s-4.43-.89-4.43-1.77c0-1.11-4.88-4.21-11.08-7.1-6-2.88-11.09-6-11.09-7.09,0-.89-2-1.77-4.43-1.77s-4.43-.89-4.43-2-4.88-4-10.86-6.65c-6-2.44-11.31-5.32-11.75-6.2-.22-1.11-7.1-5.32-15.08-9.31-8-4.21-14.85-8.2-15.51-9.09-1.77-2.22-17.07-8.87-20.39-8.87-1.78,0-6,3.11-9.76,6.87-6.43,6.65-6.43,6.88-7.53,39.24C532,645.94,531.31,650.37,528,651a3.8,3.8,0,0,1-4.43-2.66c-.45-2.66-5.77-.45-22.83,9.31-32.59,18.84-38.79,23-52.54,36.57-14.18,13.74-19.5,24.16-19.5,37.9,0,11.31,4.43,28.38,10.41,40.12C444,781.59,460.38,800,463.71,800c1.11,0,4.21,2,7.09,4.43,4.43,4,19.95,9.31,33.25,11.75,12.41,2.22,178.88,1.33,188.41-.88ZM974,733.49v-26.6h-27c-30.59,0-40.79,2-50.32,10-13.74,11.75-12.19,27.49,4,38.12,6.87,4.66,10,5.1,40.34,5.1h33v-26.6Zm0-108.61v-26.6H943.6c-40.56.22-52.53,4.88-55.41,22.83-1.56,10.64,3.76,19.95,15.29,25.71,8.42,4,13.3,4.66,40.12,4.66H974v-26.6Z"/><path class="cls-3" d="M218.11,733.49v-33l33.91.44c37,.44,46.55,3.1,55.42,15.07,10.2,14,5.76,35.69-9.31,45.66-7.09,4.88-9.75,5.1-43.67,5.1H218.11ZM894,761.64c-20.84-14-19.51-42.78,2.66-55.85,6.65-3.77,12.41-4.44,45.88-5.1l38.13-.89v66.94H940.94c-37.24,0-39.9-.22-47-5.1ZM539.52,740.81c-4.22-2.22-9.09-6.65-10.64-10-4.21-8.86-5.1-34.35-3.55-95.75l1.55-55.42,7.09-7.53c5.55-6.21,8.65-7.76,15.74-7.76,7.54-.22,24.39,5.76,27.49,9.53.66.89,7.53,4.88,15.51,9.09,8,4,14.86,8.2,15.08,9.31.44.88,5.76,3.76,11.75,6.2,6,2.66,10.86,5.54,10.86,6.65s2,2,4.43,2,4.43.88,4.43,1.77c0,1.11,5.1,4.21,11.09,7.09,6.2,2.89,11.08,6,11.08,7.1,0,.88,2,1.77,4.43,1.77s4.44,1.11,4.44,2.22c0,1.33,2.43,3.32,5.32,4.43,12.63,4.66,17.51,25.27,8.86,37-2.66,3.32-20,15.07-38.79,25.71-18.84,10.86-39.68,22.83-46.33,27-20.17,12-39.23,21.28-45.88,22.39-3.32.44-9.75-.89-14-2.88ZM218.11,624.88V591.63H252c28.38,0,35.25.67,43,4.21C319,606.93,319,642,295,653.47c-8.43,4.22-13.53,4.66-43.23,4.66H218.11Zm678.5,28.37c-23.05-11.3-23.27-45-.22-56.52,9.09-4.66,12.85-5.1,47-5.1h37.24v66.5h-37C909.91,658.13,905.48,657.69,896.61,653.25ZM507.82,479.47a10.48,10.48,0,0,0-5.32-1.77c-6-.89-14.19-14.41-13.08-21.28,1.11-7.32,5.76-15.07,10.2-16.85,1.77-.66,19.5-1.11,39.45-.88,27.71.22,36.13-.45,36.8-2.66.44-1.55,1.55-6.65,2.22-11.09l1.1-8.42H540.85c-22.39,0-41.23-1.11-45.44-2.44-12-4.21-17.29-20.83-10-31.92,5.54-8.42,14.63-10.19,55.19-9.75l37.47.22.22-17.51V337.83H620l.22,17.51.22,17.29,41.45.45c38.13.22,41.9.66,47.66,4.87,7.76,5.77,10.42,17.07,6,25.94-5.76,10.86-14.4,12.85-57,12.63l-38.13-.44v19.28l37.68,1.11c41,1.11,45.44,2.44,51.21,13.52,4,8,2,16.4-6.21,24.61l-5.1,5.09-94.42.45c-52.09.22-95.1,0-95.76-.67Z"/></svg>