<svg id="图层_1" data-name="图层 1" xmlns="http://www.w3.org/2000/svg" xmlns:xlink="http://www.w3.org/1999/xlink" viewBox="0 0 1200 1200"><defs><style>.cls-1{fill:#fff;}.cls-2{fill:url(#未命名的渐变_9);}.cls-3{fill:url(#未命名的渐变_9-2);}.cls-4{fill:url(#未命名的渐变_10);}.cls-5{fill:url(#未命名的渐变_9-3);}</style><linearGradient id="未命名的渐变_9" x1="499.27" y1="304.86" x2="695.56" y2="418.19" gradientUnits="userSpaceOnUse"><stop offset="0" stop-color="#d093e9"/><stop offset="1" stop-color="#7c70f4"/></linearGradient><linearGradient id="未命名的渐变_9-2" x1="1051.76" y1="1730.35" x2="1432.91" y2="1950.4" gradientTransform="translate(-371.82 -1178.59)" xlink:href="#未命名的渐变_9"/><linearGradient id="未命名的渐变_10" x1="767.16" y1="2115.96" x2="1209.75" y2="2115.96" gradientTransform="translate(1292.48 -1517.32) rotate(45)" gradientUnits="userSpaceOnUse"><stop offset="0" stop-color="#7c70f4"/><stop offset="0.63" stop-color="#b487ed"/><stop offset="1" stop-color="#d093e9"/></linearGradient><linearGradient id="未命名的渐变_9-3" x1="4189.3" y1="-1306.18" x2="4630.68" y2="-1306.18" gradientTransform="matrix(-0.71, 0.71, 0.71, 0.71, 4364.02, -1517.32)" xlink:href="#未命名的渐变_9"/></defs><circle class="cls-1" cx="600" cy="600" r="600"/><circle class="cls-2" cx="596.74" cy="361.14" r="118.45"/><rect class="cls-3" x="629.71" y="542.58" width="479" height="236.9" rx="100" transform="translate(722 -421.01) rotate(45)"/><path class="cls-4" d="M495.55,833.15,324.37,674.64c-46.26-42.84-46.26-112.28,0-155.11h0c46.25-42.84,121.25-42.84,167.51,0L663.07,678c46.26,42.83,46.26,112.27,0,155.11h0C616.81,876,541.81,876,495.55,833.15Z"/><path class="cls-5" d="M321.31,833.15,492.5,674.64c46.26-42.84,46.26-112.28,0-155.11h0c-46.26-42.84-121.26-42.84-167.51,0L153.8,678c-46.26,42.83-46.26,112.27,0,155.11h0C200.05,876,275.05,876,321.31,833.15Z"/></svg>