<svg id="图层_1" data-name="图层 1" xmlns="http://www.w3.org/2000/svg" viewBox="0 0 1200 1200"><defs><style>.cls-1{fill:#fff;}.cls-2{fill:#d1d2d4;}</style></defs><circle class="cls-1" cx="600" cy="600" r="600"/><path class="cls-2" d="M638.55,285.22l-422,230.87,379.14,199.6,444.6-267-380-163.51Z"/><path d="M645.56,246.73,208.08,488.83A165.08,165.08,0,0,0,123,633.28c0,62.46,36.29,120.7,92.73,148.37L565.16,947.76a56.13,56.13,0,0,0,24.36,5.51,55.54,55.54,0,0,0,28.78-7.92l458.73-270V427.87Zm3.41,64L985.9,452.23,592.33,684.51l-318-166.41ZM589.82,895.43,240.66,729.52A107.07,107.07,0,0,1,216.8,553.08L565.56,735.64a57.35,57.35,0,0,0,26.37,6.51,56,56,0,0,0,28.77-7.92l398.49-234.68V642.2Z"/><path d="M595.64,396.3l205.81,97.84,56.74-42.71L661.6,358.7Z"/></svg>