<svg id="图层_1" data-name="图层 1" xmlns="http://www.w3.org/2000/svg" viewBox="0 0 1200 1200"><defs><style>.cls-1{fill:#008df9;}.cls-2{fill:#fff;}</style></defs><circle class="cls-1" cx="600" cy="600" r="600"/><path class="cls-2" d="M658.48,863.7H715.7l18.84,64.46L837.19,863.7h121V332.18H658.48V863.7Zm60.91-473.83H897.32V806H829.05L760.88,848.8l-12.41-42.69L719.39,806ZM607.87,575.38H480c4.27-66.22,5.4-126.06,5.4-179.51h125s4.81-55.12-20.95-54.48H373.17q12.81-48.11,32-99.39s-58.84,0-78.84,52.74c-8.29,21.71-32.31,105.37-75,190.86,14.36-1.59,62-2.9,90-54.27,5.19-14.39,6.13-16.28,12.56-35.52h70.52c0,25.67-2.92,163.41-4.11,179.45H292.68c-28.72,0-38,57.71-38,57.71H414.88C404.15,754.8,346.43,857.48,241.77,938.64c50.06,14.33,100-2.25,124.6-24.17,0,0,56.19-51.07,87-169.21L585.18,903.92s19.36-65.67-3-97.68c-18.53-21.83-68.56-80.8-89.87-102.17l-35.76,28.35q16-51.21,19.23-99.39H626.4s-.21-57.68-18.53-57.68Z"/></svg>