<svg id="图层_1" data-name="图层 1" xmlns="http://www.w3.org/2000/svg" viewBox="0 0 1200 1200"><defs><style>.cls-1{fill:#fff;}.cls-2{fill:#7f6cfc;}</style></defs><circle class="cls-1" cx="600" cy="600" r="600"/><path class="cls-2" d="M600,141.33c-253.28,0-458.61,205.33-458.61,458.61h0c.77,245.75,194.32,447.62,439.82,458.73H850.11A44.87,44.87,0,0,0,891.83,1017V954.38A454.83,454.83,0,0,0,1058.62,600c0-253.28-205.3-458.62-458.58-458.64Zm184.9,519.9c3,103.89-78.8,190.52-182.68,193.51l-1.14,0c-104.51-2.48-187.32-89-185.22-193.54V526.67a38.2,38.2,0,1,1,76.29,0V661.23a108.34,108.34,0,1,0,216.46,0V526.67a38.2,38.2,0,1,1,76.29,0Z"/></svg>