<svg id="图层_1" data-name="图层 1" xmlns="http://www.w3.org/2000/svg" viewBox="0 0 1200 1200"><defs><style>.cls-1{fill:#fff;}.cls-2{fill:#4591ff;}</style></defs><circle class="cls-1" cx="600" cy="600" r="600"/><path class="cls-2" d="M1083.2,560.3c-13.52,6.75-30.41,10.13-45.62,8.44h-5.07c-35.48-3.37-67.58-13.51-98-32.1l-336.21-223L306,533.26l104.75,67.58c15.2,8.45,32.1,11.83,49,8.45L720,555.23,439.5,538.33,655.75,376.14,635.48,442S834.84,575.5,841.6,578.88c18.58,11.83,40.55,20.28,60.82,27V908.33H297.58V741.07c-40.55-40.54-87.85-72.65-141.92-92.92-11.82-5.07-25.34-8.45-37.17-8.45H116.8c13.52-6.75,30.41-10.13,45.62-8.44h5.07c33.79,3.37,67.58,13.51,96.3,32.1l32.1,22,302.42,201,294-221.32L787.53,597.47c-15.2-8.45-32.1-11.83-49-8.45L478.36,643.08,758.81,660,542.56,822.17l20.27-65.89L365.16,624.5c-22-13.52-43.93-25.34-69.27-32.1V291.67H900.73V458.93c40.55,40.54,87.85,72.65,141.92,92.92,13.51,5.07,25.34,8.45,40.55,8.45Z"/></svg>