<svg id="图层_1" data-name="图层 1" xmlns="http://www.w3.org/2000/svg" viewBox="0 0 1201 1201"><defs><style>.cls-1{fill:#fff;stroke:#251e1c;stroke-miterlimit:10;}.cls-2{fill:#4d6bfe;}</style></defs><circle class="cls-1" cx="600.5" cy="600.5" r="600"/><path class="cls-2" d="M1045.71,321.09c-9.6-4.77-13.89,4.29-19.6,8.87a59.68,59.68,0,0,0-5.21,5.22c-14.13,15.25-30.51,25.05-52.15,23.88-31.33-1.8-58.19,8.19-81.87,32.31-5-29.78-21.83-47.52-47.27-58.92-13.45-5.9-26.86-11.84-36.16-24.81-6.63-9.06-8.44-19.3-11.65-29.33-2-6.15-4-12.29-11.11-13.41-7.51-1.12-10.48,5.22-13.45,10.48-11.8,21.59-16.38,45.71-16.09,69.84,1.08,54.34,24.08,97.76,69.79,128.71,5.22,3.65,6.58,7.06,5,12.28-3.21,10.72-6.82,21-10,31.63-2,6.82-5.21,8.43-12.52,5.45a206.68,206.68,0,0,1-65.94-44.83C705,447.07,675.57,412.28,639,385.23q-12.82-9.42-26.22-18c-37.29-36.41,5-66.19,14.81-69.84,10.24-3.61,3.61-16.38-29.58-16.13-33,0-63.26,11.16-101.9,25.92a111.08,111.08,0,0,1-17.55,5.22,367.35,367.35,0,0,0-109.36-3.85c-71.44,7.94-128.51,41.86-170.57,99.61-50.34,69.45-62.43,148.3-47.86,230.66,15.26,86.65,59.36,158.54,127.39,214.49C348.51,911.56,429.7,940,522.3,934.57c56.19-3.22,118.71-10.73,189.23-70.52,17.74,8.87,36.41,12.28,67.55,15,23.88,2.24,46.88-1.17,64.62-4.78,28-5.94,25.93-31.63,15.89-36.65-81.63-38-63.65-22.51-80.07-35C821.19,753.47,883.71,702.3,908,536.7c1.85-13.16.24-21.35,0-32.07,0-6.34,1.37-9.07,8.68-9.75a156.29,156.29,0,0,0,58.67-18c53-28.85,74.18-76.37,79.39-133.48.68-8.63,0-17.74-9.31-22.28h.25ZM584.33,834c-79.14-62.38-117.59-82.85-133.53-81.88C436,753,438.52,769.84,441.93,781c3.41,10.92,8,18.43,14.14,28,4.28,6.33,7.26,15.93-4.39,23-25.44,15.89-69.79-5.26-71.84-6.38C328.19,795.09,285,755.08,254.74,700a382.39,382.39,0,0,1-49.12-170.09c-.68-14.81,3.6-19.83,18-22.56a183.55,183.55,0,0,1,58-1.56c80.75,11.79,149.61,47.95,207.21,105.27,32.95,32.79,57.76,71.64,83.49,109.89,27.29,40.45,56.63,78.95,93.91,110.53,13.16,11.16,23.68,19.59,33.63,25.73-30.46,3.42-81.15,4.1-115.75-23.44Zm38-244.55a11.58,11.58,0,1,1,11.35,11.59h0a11.46,11.46,0,0,1-11.6-11.3v-.29h.25ZM740.14,650.2a76,76,0,0,1-22.27,6.14,49.4,49.4,0,0,1-30.27-9.55c-10.23-8.63-17.74-13.65-21-28.85a60.93,60.93,0,0,1,.68-22.32c2.73-12.48-.19-20.23-9.06-27.54-7.07-5.85-16.18-7.5-26.18-7.5a17.57,17.57,0,0,1-9.55-2.93,9.71,9.71,0,0,1-5.11-5.85,10.11,10.11,0,0,1-.44-4,9.64,9.64,0,0,1,1.22-3.8c1.17-2,6.14-7.07,7.31-8,13.4-7.7,29.09-5.21,43.42.69,13.4,5.45,23.39,15.49,38,29.58,14.77,17.06,17.5,21.83,25.93,34.79,6.58,10,12.72,20.47,16.81,32.32,2.49,7.31-.68,13.4-9.55,17.05Z" transform="translate(0.5 0.5)"/></svg>