<svg id="图层_1" data-name="图层 1" xmlns="http://www.w3.org/2000/svg" viewBox="0 0 1200 1200"><defs><style>.cls-1{fill:#fff;}.cls-2{fill:#265bff;}</style></defs><circle class="cls-1" cx="600" cy="600" r="600"/><path class="cls-2" d="M292.34,169.91c56.86,59.63,117.61,116.25,177,173.62,4.87,92-.58,184.35,2.92,276.52,1.17,14.3,18.3,17.87,30.57,17.5q135.52.27,271.05,0c60.75,57.75,119.55,117.38,180.89,174.19-184.59-3-369.18-.38-554-1.32-26.68-.94-53.74,2.26-80.22-1.69-16.36-2.82-27.85-17.87-27.26-33.67C292.54,573.59,294.29,371.75,292.34,169.91Z"/><path d="M292.34,851.43c7.79,8.09,15.58,16.18,23.76,23.89,1.75,27.65,0,55.3.78,83.14.19,5.46,5.64,8.47,10.71,8.84,9,.38,17.72-.37,26.67.38,8.38,6.58,15.39,15.05,23.56,22-24.14-.38-48.29,0-72.63-.19-6.81.19-13.24-5.64-12.85-12.41,0-42.14.39-83.9,0-125.66ZM447.92,989.12c7-.18,14.6.94,21-2.25.78-2.26,1.56-4.33,2.14-6.59a27.93,27.93,0,0,0,3.7,1.13c6,7.15,16.36,8.28,25.12,9.41,10.51-.38,21.42-3.39,28.62-11.1,14.41-16,15.78-39.13,10.91-58.88a43.06,43.06,0,0,0-23.37-28.22c-15.19-5.26-33.49-2.25-44.78,9.22-.78-16.55.19-33.29-.59-49.85a189.31,189.31,0,0,0-23,.19Q448,920.18,447.92,989.12Zm62.31-72.61c7,6.4,8,16.37,8.18,25.21-.2,8.47-2.14,18.44-9.93,23.51-12.27,8.47-32.91,3.2-36.8-11.66-5.07-14.86-2.15-36.68,15.77-41.76,7.59-1.88,16.94-1.32,22.78,4.7Zm210.1,72.61c6.81-.56,14.8,1.7,20.64-2.63,1.95-1.5,1.75-4.14,2.53-6.4,1,.38,2.92.95,3.89,1.32,6,7.15,16.36,8.28,25.12,9.41,10.52-.38,21.42-3.39,28.63-11.1,14.4-16,15.77-39.13,10.9-58.88a43.19,43.19,0,0,0-23.37-28.4,45.46,45.46,0,0,0-45.17,9c-.2-16.56.19-33.11-.2-49.67-7.59-.37-15.38-.75-23.17.38.39,45.52.2,91.23.2,136.94Zm61.53-73.55c6.81,5.27,8.57,14.3,9,22.2.38,8.47-.78,18.06-6.82,24.64-11.49,11.85-35.63,7.15-39.92-9-5.06-14.86-2.14-36.87,15.78-42,7.39-1.31,16.16-1.12,22,4.14Zm62.7-4.89c-3.31,7.34-7.21,14.67-9.93,22.39h22.19C861.5,921,866.37,909,871,897c4.28-7.71,4.87-17.68,11.29-23.89a105.14,105.14,0,0,0,6,16.55c5.06,13,10.12,25.78,15.38,38.75.39,1.13,1.36,3.58,1.75,4.9,7.6,0,15.19-.19,22.78,0-1.36-2.64-2.72-5.08-3.89-7.72-10.71-24.64-22.39-49.09-32.91-73.92-6.81.18-13.63.18-20.25,0-9,19.75-17.91,39.5-26.67,59.06Zm88,22.58q11.1-.28,22.2,0c0-27.28-.2-54.37,0-81.64-7.4.18-15,.18-22.4,0C932.76,878.89,932.57,906,932.57,933.26ZM565.72,973a64.8,64.8,0,0,0,.78,8.65c2.34,4.7,7.6,7.15,13,7.34,23.56.18,47.31-.19,71.07.18-7.59-7-15-14.1-22-21.44-11.3-2.07-23,.56-34.27-1.88-1.17-1.32-2.34-2.63-3.51-3.76-1.94-28.78.39-57.94-1.17-86.72-7.59-8.09-16.16-15.43-23.75-23.52,0,40.45-.39,80.89-.2,121.15Zm-171.15,16h23.37q-.3-49.66,0-99.33H394.57Zm272.6,0h23.37q-.3-49.66,0-99.33H667.37C667.17,922.72,667.17,955.83,667.17,988.94Z"/></svg>