<svg id="图层_1" data-name="图层 1" xmlns="http://www.w3.org/2000/svg" viewBox="0 0 1200 1200"><defs><style>.cls-1{fill:#fff;}.cls-2{fill:#e5041d;}</style></defs><circle class="cls-1" cx="600" cy="600" r="600"/><path class="cls-2" d="M548.28,806.54c45.93,52.52,118.37,66.15,182.41,35.93,106-50,147.68-140,153.83-251.37,9-162.41-124.15-271.91-267.3-273.74-69.9-.89-135,13-194,52.46C311.48,444.5,277.63,608.42,352,718.71a137.46,137.46,0,0,0,46.32,43.2c10,5.71,16.51,5.19,19.32-7.51,3.21-14.5,7.09-28.85,10.57-43.3,1.79-7.44-.8-13.47-4.88-19.94-38.47-60.84-41.27-124.74-9.66-188.27,34.44-69.21,93.44-103.44,169.84-107.48,39-2.06,76.79,3.47,111.64,23.1,49.92,28.12,80,70.89,87.08,127.18,8.31,66.51-.57,130.73-40.79,187.09-22.06,30.92-51.64,49.7-90.24,53.24-51.84,4.75-86.81-34.67-74.21-85.46,7.14-28.81,16.18-57.15,24.77-85.58,5.52-18.3,10.1-36.77,11.26-55.85,1.88-31.09-11.3-55.23-34.55-64.61-24-9.68-56.74.24-75,23-33.59,41.89-31.91,89-18.84,137.18a56.75,56.75,0,0,1,.59,29.54c-16.57,69.29-33,138.62-48.88,208.08-8.44,37-6.4,74.64-2.91,111.92,1.6,17-3.74,16.63-15.83,11.18-69.91-31.49-128.95-77-175.83-137.89-62.22-80.8-95.48-172.94-94-274.6C150.14,431.09,224.46,297.17,373,209.68c194.9-114.83,445.31-66.2,580.71,112.9,110.42,146.06,129.12,308.1,51.19,472.06-78.15,164.41-215,251.1-398.94,257.46-43.61,1.51-86.27-4.46-128.47-15.1-9.61-2.42-13.91-5.06-7.23-15.13,37.83-57,55.57-121.65,70.53-187.35C542.71,825.93,545.32,817.5,548.28,806.54Z"/></svg>