<svg id="图层_1" data-name="图层 1" xmlns="http://www.w3.org/2000/svg" viewBox="0 0 1200 1200"><defs><style>.cls-1{fill:#0094ff;}.cls-2{fill:#fff;}</style></defs><circle class="cls-1" cx="600" cy="600" r="600"/><path class="cls-2" d="M902.06,396.66h-187V442h187Zm-92.23,155.9q-32.94,0-53.43,19.21t-22.69,52.15H883Q876.45,552.57,809.83,552.56Zm5.86,214.09a92.49,92.49,0,0,0,44.65-11.71q21.58-11.72,27.81-31.84H969q-36.6,112.35-156.27,112.35-78.32,0-124.61-48.31t-46.3-127q0-76.11,47.76-126.44t123.15-50.32q50.5,0,88,24.89a153.37,153.37,0,0,1,56,65.5q18.5,40.63,18.49,90.76,0,6.23-.74,17.2H733.71q0,40.62,21,62.77t60.93,22.14Zm-488.56-18.3H435.45q75,0,75-61.12,0-65.87-72.82-65.87H327.13Zm0-196.52H430q28.55,0,45.2-13.36t16.65-41.54q0-52.69-69.53-52.7H327.13ZM225.75,365.55H443.14q31.85,0,56.72,5.12a156,156,0,0,1,46.3,17.39q21.4,12.26,32.93,35.31t11.53,56.36q0,66.24-63,96.25,41.73,11.71,63,42.09t21.23,74.65q0,27.45-9,50t-24.16,37.88a138.49,138.49,0,0,1-36,26,173.05,173.05,0,0,1-44.28,15.37,246,246,0,0,1-49,4.76H225.75Z" transform="translate(-0.5 -0.5)"/></svg>