<svg id="图层_1" data-name="图层 1" xmlns="http://www.w3.org/2000/svg" viewBox="0 0 1200 1200"><defs><style>.cls-1{fill:#738bd8;}.cls-2{fill:#fff;}</style></defs><circle class="cls-1" cx="600" cy="600" r="600"/><path class="cls-2" d="M471.57,580.83c38.95,0,70.49,29.23,69.79,64.91,0,35.72-30.77,64.91-69.79,64.91-38.27,0-69.82-29.19-69.82-64.91S432.59,580.83,471.57,580.83Zm249.79,0c39,0,69.87,29.23,69.87,64.91s-30.84,64.91-69.87,64.91c-38.27,0-69.78-29.19-69.78-64.91S682.34,580.83,721.36,580.83Zm64.71,305.93C933.63,882,990.43,783.18,990.43,783.18c0-219.5-96.18-397.42-96.18-397.42-96.1-73.56-187.64-71.51-187.64-71.51l-9.32,10.89c113.53,35.45,166.24,86.58,166.24,86.58a536.35,536.35,0,0,0-201-65.41,553.22,553.22,0,0,0-134.8,1.29A65.73,65.73,0,0,0,516.34,349c-23.33,2.09-80.13,10.9-151.53,43-24.66,11.56-39.41,19.78-39.41,19.78s55.46-53.89,175.6-89.29l-6.69-8.18s-91.46-2-187.64,71.59c0,0-96.1,177.88-96.1,397.31,0,0,56.1,98.81,203.65,103.61,0,0,24.66-30.61,44.76-56.53-84.85-26-116.83-80.48-116.83-80.48a216.29,216.29,0,0,0,18.61,11.6,8.19,8.19,0,0,0,2.67,2c2,1.45,4,2.08,6.06,3.46A399.61,399.61,0,0,0,418.15,790a558,558,0,0,0,98.23,29.35A458.2,458.2,0,0,0,689.3,820a432.77,432.77,0,0,0,96.77-29.26,384.13,384.13,0,0,0,76.83-40.24S829.5,806.31,742,831.61c20.06,25.88,44.13,55.15,44.13,55.15Z" transform="translate(-0.5 -0.5)"/></svg>