<svg id="图层_1" data-name="图层 1" xmlns="http://www.w3.org/2000/svg" viewBox="0 0 1200 1200"><defs><style>.cls-1{fill:#cf5ba1;}.cls-2{fill:#ff9bf0;}</style></defs><circle class="cls-1" cx="600" cy="600" r="600"/><path class="cls-2" d="M789,664.32c70.28,199.33,98.91,361.81,104.53,395.52C1014.08,975.72,1100,842.42,1124,688,1105.59,682,957.5,636.51,789,664.32Zm-97.27,26.85c-303.31,109.05-412.23,326.06-422,346.47,91.25,73.3,205.78,117.14,330.17,117.14a520.48,520.48,0,0,0,210-44.12c-8-48.63-39.18-218.24-114.8-420.72C694.19,690.35,693,690.76,691.72,691.17Zm-54.11-86.44c7-2.33,14.11-4.52,21.23-6.58-13.56-31.51-28.22-63-43.56-94.12C346.76,586.92,86.05,583.49,62.49,582.94c-.14,5.62-.28,11.24-.28,17,0,142.48,52.33,272.63,138.23,371C212.64,949.42,360.18,697.2,637.61,604.73Zm-66.86-186C481.7,255.24,385.53,118,371.28,97.83c-150.42,73.3-262.9,216.32-297.83,388.53C97.56,486.63,319.08,487.59,570.75,418.68ZM956.54,185C861.6,98.1,736.66,45.22,600.07,45.22A517.63,517.63,0,0,0,474,60.7C489,81.25,586.64,218.39,674.73,385.53,865.85,311.41,946.81,199.21,956.54,185ZM751.59,548.15c4,9.59,7.81,19.18,11.64,28.63,178.92-23.15,356.75,14,374.56,17.81-1.23-131-46.58-251.12-121.38-345.51C1005,264.83,914.89,384,716.11,467.86,728.44,494.31,740.49,521.16,751.59,548.15Z" transform="translate(0 0)"/></svg>