<?xml version="1.0" encoding="utf-8"?>
<!-- Generator: Adobe Illustrator 26.0.0, SVG Export Plug-In . SVG Version: 6.00 Build 0)  -->
<svg version="1.1" id="图层_1" xmlns="http://www.w3.org/2000/svg" xmlns:xlink="http://www.w3.org/1999/xlink" x="0px" y="0px"
	 viewBox="0 0 1200 1200" style="enable-background:new 0 0 1200 1200;" xml:space="preserve">
<style type="text/css">
	.st0{fill:#FFFFFF;stroke:#251E1C;stroke-miterlimit:10;}
	.st1{fill:#0096FA;}
</style>
<circle class="st0" cx="600" cy="600" r="600"/>
<g>
	<path class="st1" d="M829.9,344.2c-53.9-55.9-121.6-78.8-197.9-79c-35.9-0.1-71.1,5.6-105.7,15.1c-35.1,9.7-68.7,22.9-99.5,42.8
		c-4.1,2.6-5.7,5.7-5.7,10.5c0,36.1-0.4,72.1-0.5,108.2c-0.1,33.1,0,66.2,0,99.2c0,69,0,137.9-0.1,206.9c0,6.5,1.9,10.2,8.1,12.8
		c21.6,9.3,44,16.8,66.9,22.3c37.4,8.9,75.3,13.2,113.7,15c40.9,1.9,81.1-1.6,119.9-15c74.4-25.8,128-74.3,157.1-148
		c18.7-47.6,21.1-97.1,13.2-147.3C890.7,432.9,868.6,384.3,829.9,344.2L829.9,344.2z"/>
	<path class="st1" d="M600,0C268.6,0,0,268.6,0,600s268.6,600,600,600s600-268.6,600-600S931.4,0,600,0z M996.9,643.7
		c-23,57.7-61.5,102.9-112.5,137.7c-53.1,36.2-112.2,56.5-175.5,65.2c-80.5,11.1-159.1,0.3-236.7-21c-15.1-4.2-30-9.1-44.9-14.2
		c-5.7-2-6.6-1.5-6.6,4.7c-0.1,40.8,0,81.5-0.1,122.2c0,4.6,1.6,7.1,6.2,8.5c8.8,2.7,17.3,6.1,24.7,11.7c4.4,3.3,7.5,7.3,7.1,13.2
		c-0.5,7-4.4,10.9-11.5,10.9c-24.1,0-48.2,0-72.3,0c-23.6,0-47.1-0.1-70.7,0.1c-5.7,0-9.7-1.6-11.9-7.1c-2.2-5.5-0.9-10.2,3.1-14.4
		c6.9-7.1,16-10.2,25-13.4c9.2-3.2,9.5-1.1,9.5-13.2c0-184.1,0-368.2-0.1-552.3c0-2.9,1.5-6.9-1.3-8.3s-5.1,2.4-7.3,4.2
		c-27.4,21.9-52.7,45.8-72.9,74.9c-0.6,0.9-1.2,1.9-1.9,2.8c-7.1,9.4-11.9,18.9-7,31.4c2.4,6,2.1,12.8,0.3,19.4
		c-1.1,4.3-2.9,8.1-6.6,10.8c-6.1,4.5-10.3,3.8-14.3-2.5c-15.6-24.6-31-49.4-46.8-73.9c-2.6-4-2.4-6.8,0.9-10.3
		c21.5-22.7,45-43.3,69.5-62.6c62.1-49,129.7-88.2,204.2-115.1c48.4-17.6,98.8-28.7,150.1-33.1c60.2-5,119.5-0.8,177.6,16.2
		c61.6,18.1,116,48.7,160.1,96s70.6,103,79,167C1020,548.4,1015.5,596.9,996.9,643.7L996.9,643.7z"/>
</g>
</svg>
