<?xml version="1.0" encoding="utf-8"?>
<!-- Generator: Adobe Illustrator 26.0.0, SVG Export Plug-In . SVG Version: 6.00 Build 0)  -->
<svg version="1.1" id="图层_1" xmlns="http://www.w3.org/2000/svg" xmlns:xlink="http://www.w3.org/1999/xlink" x="0px" y="0px"
	 viewBox="0 0 1200 1200" style="enable-background:new 0 0 1200 1200;" xml:space="preserve">
<style type="text/css">
	.st0{fill:#FFFFFF;}
	.st1{fill:#E5041D;}
</style>
<circle class="st0" cx="600" cy="600" r="600"/>
<path class="st1" d="M548.3,806.5c45.9,52.5,118.4,66.2,182.4,35.9c106-50,147.7-140,153.8-251.4c9-162.4-124.2-271.9-267.3-273.7
	c-69.9-0.9-135,13-194,52.5C311.5,444.5,277.6,608.4,352,718.7c11.9,17.8,27.7,32.6,46.3,43.2c10,5.7,16.5,5.2,19.3-7.5
	c3.2-14.5,7.1-28.8,10.6-43.3c1.8-7.4-0.8-13.5-4.9-19.9c-38.5-60.8-41.3-124.7-9.7-188.3c34.4-69.2,93.4-103.4,169.8-107.5
	c39-2.1,76.8,3.5,111.6,23.1c49.9,28.1,80,70.9,87.1,127.2c8.3,66.5-0.6,130.7-40.8,187.1c-22.1,30.9-51.6,49.7-90.2,53.2
	c-51.8,4.8-86.8-34.7-74.2-85.5c7.1-28.8,16.2-57.2,24.8-85.6c5.5-18.3,10.1-36.8,11.3-55.8c1.9-31.1-11.3-55.2-34.5-64.6
	c-24-9.7-56.7,0.2-75,23c-33.6,41.9-31.9,89-18.8,137.2c2.8,9.6,3,19.8,0.6,29.5c-16.6,69.3-33,138.6-48.9,208.1
	c-8.4,37-6.4,74.6-2.9,111.9c1.6,17-3.7,16.6-15.8,11.2c-69.9-31.5-129-77-175.8-137.9c-62.2-80.8-95.5-172.9-94-274.6
	c2.4-171.8,76.7-305.8,225.2-393.2c194.9-114.8,445.3-66.2,580.7,112.9c110.4,146.1,129.1,308.1,51.2,472.1
	c-78.2,164.4-215,251.1-398.9,257.5c-43.6,1.5-86.3-4.5-128.5-15.1c-9.6-2.4-13.9-5.1-7.2-15.1c37.8-57,55.6-121.7,70.5-187.3
	C542.7,825.9,545.3,817.5,548.3,806.5z"/>
</svg>
