<svg id="图层_1" data-name="图层 1" xmlns="http://www.w3.org/2000/svg" viewBox="0 0 1200 1200"><defs><style>.cls-1{fill:#323e4d;}.cls-2{fill:#2a323b;}.cls-3{fill:#fffffe;}.cls-4{fill:#83838d;}</style></defs><circle class="cls-1" cx="600" cy="600" r="600"/><path class="cls-2" d="M774,1026.11c-72,0-122-23.17-155.86-55.85q23.4,1.53,46.86,1.49c79.2,0,157.69-28.39,183.66-62.78l5.19-6.88-15.62-46.6a157.69,157.69,0,0,0,41.71-15.59l43.41,129.46c-24.91,33-86.9,55.73-143.63,56.7l-5.72,0M691.89,753.32a3.26,3.26,0,0,1-3.2-2.38,77.84,77.84,0,0,1-2.17-18.24V553.51a3.31,3.31,0,0,1,3.31-3.34H818.9a3.31,3.31,0,0,0,3.31-3.31V446.77h71.38V604.11H757.91V753.3h-66m66.6-393.1H690.39a3.32,3.32,0,0,1-3.32-3.31h0V261.46h71.37V360.2" transform="translate(-0.5 -0.5)"/><path class="cls-3" d="M815.89,897c-24.7,23.91-75.45,41.71-124.07,42.52l-5.44,0c-160,0-202.62-122.91-202.62-195.51V520.88a3.32,3.32,0,0,0-3.32-3.31H403.09a3.32,3.32,0,0,1-3.31-3.32V412.57a3.35,3.35,0,0,1,2.11-3.06c82.65-32.39,128.84-96.74,141-196.27.69-5.56,5.21-5.7,5.26-5.7H651.36a3.32,3.32,0,0,1,3.32,3.34V389.54a3.31,3.31,0,0,0,3.31,3.33H786.51a3.32,3.32,0,0,1,3.31,3.34v118a3.32,3.32,0,0,1-3.31,3.34H657.44a3.31,3.31,0,0,0-3.32,3.31h0V733c.77,47.74,23.73,71.95,68.24,71.95,17.94,0,38.49-4.19,57.24-11.42a3.26,3.26,0,0,1,4.23,1.79,1.55,1.55,0,0,1,.08.23l32.81,98a3.37,3.37,0,0,1-.78,3.48m-151,74.8c79.2,0,157.69-28.39,183.66-62.78l5.2-6.88-49.11-146.5a3.3,3.3,0,0,0-3.13-2.27H691.92a3.25,3.25,0,0,1-3.2-2.38,77.32,77.32,0,0,1-2.18-18.24V553.51a3.31,3.31,0,0,1,3.31-3.34H818.92a3.32,3.32,0,0,0,3.32-3.31V363.54A3.32,3.32,0,0,0,819,360.2H690.41a3.31,3.31,0,0,1-3.31-3.31h0V178.23a3.32,3.32,0,0,0-3.29-3.34H458.43A38.4,38.4,0,0,0,421,209.23c-11.24,92.23-53.27,147.54-132.22,174.1l-8.81,3a3.36,3.36,0,0,0-2.27,3.15V546.83a3.32,3.32,0,0,0,3.32,3.34h80.64V744c0,154.72,106.48,227.71,303.33,227.71" transform="translate(-0.5 -0.5)"/><path class="cls-4" d="M451.32,602.35H361.64V550.19H448.4a2.93,2.93,0,0,1,2.92,2.95v49.21" transform="translate(-0.5 -0.5)"/></svg>